<svg preserveAspectRatio="xMidYMid meet" data-bbox="20 30.212 160 139.577" viewBox="20 30.212 160 139.577" height="200" width="200"
  xmlns="http://www.w3.org/2000/svg" data-type="color" role="img" aria-labelledby="svgcid-bbudes29cahq">
  <title id="svgcid-bbudes29cahq">Homepage</title>
  <g>
    <path d="M175.294 30.212H24.706A4.706 4.706 0 0020 34.918v130.165a4.706 4.706 0 004.706 4.706h150.588a4.706 4.706 0 004.706-4.706V34.918a4.706 4.706 0 00-4.706-4.706zm-4.706 122.776L105.129 39.624h65.459v113.364zm-44.706 4.706l17.976-32.329 18.824 32.329h-36.8zm-10.776 0H82.447l38.871-71.012 17.035 29.459-23.247 41.553zm-43.388 0H37.506L100 49.553l15.812 27.388-44.094 80.753zm23.153-118.07L29.412 152.988V39.624h65.459z" fill="#444444" data-color="1"></path>
  </g>
</svg>